<?xml version="1.0" encoding="UTF-8"?>
<svg id="Layer_1" data-name="Layer 1" xmlns="http://www.w3.org/2000/svg" viewBox="0 0 1806.8 389.1">
  <defs>
    <style>
      .cls-1 {
        fill: #fff;
      }
    </style>
  </defs>
  <g>
    <rect class="cls-1" x="10.36" y="5.18" width="169.85" height="169.85"/>
    <rect class="cls-1" x="214.19" y="5.18" width="169.85" height="169.85"/>
    <rect class="cls-1" x="214.19" y="209" width="169.85" height="169.85"/>
    <path class="cls-1" d="m188.58,293.8c0,51.52-41.77,93.29-93.29,93.29S2,345.32,2,293.8s41.77-93.29,93.29-93.29,93.29,41.77,93.29,93.29"/>
    <g>
      <path class="cls-1" d="m807.74,148.03c18.55,0,32.14-13.88,32.14-32.35s-13.6-32.53-32.14-32.53-32.19,13.93-32.19,32.53,13.64,32.35,32.19,32.35h0Zm64.69-32.35c0,35.93-26.08,62.71-62.09,62.71-14.35,0-27.08-4.89-36.97-13.28l-10.74,9.91h-16.63V5.18h31.93v57.58c9.12-6.24,20.18-9.78,32.4-9.78,36.01,0,62.09,26.74,62.09,62.7"/>
      <path class="cls-1" d="m548.87,115.69c0-18.61-13.64-32.53-32.19-32.53s-32.14,13.88-32.14,32.53,13.6,32.53,32.14,32.53,32.19-13.97,32.19-32.53m29.54-110.51v169.85h-16.63l-10.72-9.88c-9.91,8.48-22.67,13.43-36.98,13.43-35.83,0-62.09-26.96-62.09-62.89s26.27-62.7,62.09-62.7c12.19,0,23.27,3.56,32.4,9.83V5.18h31.93Z"/>
      <path class="cls-1" d="m655.16,27.89c9.79,0,16.26,5.94,16.26,14.7,0,9.76-9.78,16.37-22.39,23.38-6.71-10.16-10.23-17.84-10.23-23.2,0-8.89,6.47-14.88,16.35-14.88m57.91,116.74c9.35-13.51,14.91-30.6,15.69-50.21h-29.78c-.73,9.72-3.12,18.47-6.87,25.91-3.98,10.04-10.16,16.86-19.38,21.51-6.77,3.43-14.76,5.49-23,5.49-14.02,0-23.33-7.67-23.33-19.31,0-9.97,5.97-17.27,14.29-24,9.13-7.38,13.79-9.54,24.98-15.55,18.65-10.85,36.89-23.25,36.89-46.09,0-24.2-19.01-40.39-47.4-40.39s-47.89,16.06-47.89,40.57c0,9.58,2.89,19.37,15.83,38.12-16.02,10.51-29.85,24.7-29.85,48.47,0,29.48,21.36,48.74,53.15,48.74,17.64,0,33.27-4.65,46.06-13.05,2.9,3.29,5.91,6.68,9.01,10.17h38.05c-9.4-10.79-18.22-20.92-26.45-30.38"/>
    </g>
  </g>
  <g>
    <path class="cls-1" d="m570.6,378.69h-17.54v-16.6c-8.83,11.42-22.36,18.83-40.73,18.83-31.31,0-55.68-24.48-55.68-58.03s24.37-57.91,55.68-57.91c18.36,0,31.9,7.53,40.73,18.83v-16.6h17.54v111.47Zm-96.05-55.79c0,23.07,16.24,41.55,39.9,41.55s39.67-17.89,39.67-41.55-16.48-41.43-39.67-41.43-39.9,18.48-39.9,41.43Z"/>
    <path class="cls-1" d="m702.32,332.19c0,33.08-23.78,48.73-50.61,48.73s-50.61-15.66-50.61-48.73v-64.97h17.54v63.33c0,23.07,14.01,33.9,33.08,33.9s32.96-10.83,32.96-33.9v-63.33h17.66v64.97Z"/>
    <path class="cls-1" d="m820.73,283.81v-74.63h17.54v169.5h-17.54v-16.6c-8.83,11.42-22.36,18.83-40.73,18.83-31.31,0-55.68-24.48-55.68-58.03s24.37-57.91,55.68-57.91c18.36,0,31.9,7.53,40.73,18.83Zm-78.51,39.08c0,23.07,16.24,41.55,39.9,41.55s39.67-17.89,39.67-41.55-16.48-41.43-39.67-41.43-39.9,18.48-39.9,41.43Z"/>
    <path class="cls-1" d="m891.36,227.67c0,7.06-5.53,12.36-12.48,12.36s-12.36-5.3-12.36-12.36,5.3-12.48,12.36-12.48,12.48,5.42,12.48,12.48Zm-3.65,151.02h-17.66v-111.47h17.66v111.47Z"/>
    <path class="cls-1" d="m1028.37,322.89c0,33.08-25.19,58.03-58.74,58.03s-58.62-24.95-58.62-58.03,25.07-57.91,58.62-57.91,58.74,24.95,58.74,57.91Zm-99.46,0c0,24.13,17.54,41.55,40.73,41.55s40.73-17.42,40.73-41.55-17.66-41.43-40.73-41.43-40.73,17.42-40.73,41.43Z"/>
    <path class="cls-1" d="m1127.36,283.11h-48.14v56.26c0,17.42,9.18,25.07,22.13,25.07,8.59,0,16.95-3.18,23.42-7.89l8.24,13.3c-8.36,6.36-19.42,11.06-33.08,11.06-24.01,0-38.25-13.18-38.25-41.2v-56.62h-24.37v-15.89h24.37v-35.43h17.54v35.43h48.14v15.89Z"/>
    <path class="cls-1" d="m1248.13,322.54c0,2.24-.12,4.59-.35,6.59h-89.34c2.47,24.01,19.3,36.37,39.43,36.37,13.77,0,25.78-5.3,35.31-14.01l9.42,12.01c-13.89,13.3-29.43,17.42-45.79,17.42-32.96,0-56.38-23.42-56.38-57.91s23.54-58.03,55.32-58.03,52.14,23.66,52.38,57.56Zm-89.46-7.65h71.57c-2.24-20.83-15.89-34.25-34.84-34.25-20.6,0-33.9,14.12-36.72,34.25Z"/>
    <path class="cls-1" d="m1361.95,282.52l-11.3,11.89c-8.36-8.12-18.36-12.95-30.49-12.95-22.36,0-39.31,17.42-39.31,41.43s16.95,41.55,39.31,41.55c12.12,0,22.95-5.42,30.84-13.07l10.95,12.01c-10.12,11.42-24.84,17.54-41.32,17.54-34.25,0-57.68-24.95-57.68-58.03s23.42-57.91,57.68-57.91c16.48,0,31.31,6.12,41.32,17.54Z"/>
    <path class="cls-1" d="m1400.21,282.75c9.18-12.95,23.78-17.77,37.31-17.77,27.54,0,46.49,17.66,46.49,44.61v69.09h-17.54v-63.33c0-21.19-11.77-33.66-32.13-33.66-18.72,0-34.13,12.95-34.13,34.13v62.86h-17.66v-169.5h17.66v73.57Z"/>
    <path class="cls-1" d="m1615.97,309.59v69.09h-17.54v-63.33c0-21.19-11.77-33.66-32.13-33.66-18.72,0-34.13,12.95-34.13,34.13v62.86h-17.66v-111.47h17.42v15.89c9.06-13.3,23.89-18.13,37.55-18.13,27.54,0,46.49,17.66,46.49,44.61Z"/>
    <path class="cls-1" d="m1667.76,227.67c0,7.06-5.53,12.36-12.48,12.36s-12.36-5.3-12.36-12.36,5.3-12.48,12.36-12.48,12.48,5.42,12.48,12.48Zm-3.65,151.02h-17.66v-111.47h17.66v111.47Z"/>
    <path class="cls-1" d="m1713.55,312.42h16.12l42.96-45.2h22.01l-50.61,52.5,51.44,58.97h-22.25l-43.67-50.26h-16.01v50.26h-17.66v-169.5h17.66v103.23Z"/>
  </g>
</svg>